<svg id="visual" viewBox="0 0 900 600" width="900" height="600" xmlns="http://www.w3.org/2000/svg" xmlns:xlink="http://www.w3.org/1999/xlink" version="1.1"><path d="M0 103L21.5 98C43 93 86 83 128.8 88C171.7 93 214.3 113 257.2 117C300 121 343 109 385.8 101C428.7 93 471.3 89 514.2 82C557 75 600 65 642.8 61C685.7 57 728.3 59 771.2 65C814 71 857 81 878.5 86L900 91L900 0L878.5 0C857 0 814 0 771.2 0C728.3 0 685.7 0 642.8 0C600 0 557 0 514.2 0C471.3 0 428.7 0 385.8 0C343 0 300 0 257.2 0C214.3 0 171.7 0 128.8 0C86 0 43 0 21.5 0L0 0Z" fill="#385382"></path><path d="M0 151L21.5 144C43 137 86 123 128.8 128C171.7 133 214.3 157 257.2 166C300 175 343 169 385.8 161C428.7 153 471.3 143 514.2 130C557 117 600 101 642.8 96C685.7 91 728.3 97 771.2 105C814 113 857 123 878.5 128L900 133L900 89L878.5 84C857 79 814 69 771.2 63C728.3 57 685.7 55 642.8 59C600 63 557 73 514.2 80C471.3 87 428.7 91 385.8 99C343 107 300 119 257.2 115C214.3 111 171.7 91 128.8 86C86 81 43 91 21.5 96L0 101Z" fill="#2d4774"></path><path d="M0 193L21.5 189C43 185 86 177 128.8 183C171.7 189 214.3 209 257.2 216C300 223 343 217 385.8 209C428.7 201 471.3 191 514.2 180C557 169 600 157 642.8 149C685.7 141 728.3 137 771.2 145C814 153 857 173 878.5 183L900 193L900 131L878.5 126C857 121 814 111 771.2 103C728.3 95 685.7 89 642.8 94C600 99 557 115 514.2 128C471.3 141 428.7 151 385.8 159C343 167 300 173 257.2 164C214.3 155 171.7 131 128.8 126C86 121 43 135 21.5 142L0 149Z" fill="#223c66"></path><path d="M0 259L21.5 256C43 253 86 247 128.8 250C171.7 253 214.3 265 257.2 268C300 271 343 265 385.8 260C428.7 255 471.3 251 514.2 245C557 239 600 231 642.8 218C685.7 205 728.3 187 771.2 189C814 191 857 213 878.5 224L900 235L900 191L878.5 181C857 171 814 151 771.2 143C728.3 135 685.7 139 642.8 147C600 155 557 167 514.2 178C471.3 189 428.7 199 385.8 207C343 215 300 221 257.2 214C214.3 207 171.7 187 128.8 181C86 175 43 183 21.5 187L0 191Z" fill="#173159"></path><path d="M0 313L21.5 309C43 305 86 297 128.8 298C171.7 299 214.3 309 257.2 311C300 313 343 307 385.8 311C428.7 315 471.3 329 514.2 331C557 333 600 323 642.8 306C685.7 289 728.3 265 771.2 264C814 263 857 285 878.5 296L900 307L900 233L878.5 222C857 211 814 189 771.2 187C728.3 185 685.7 203 642.8 216C600 229 557 237 514.2 243C471.3 249 428.7 253 385.8 258C343 263 300 269 257.2 266C214.3 263 171.7 251 128.8 248C86 245 43 251 21.5 254L0 257Z" fill="#152d51"></path><path d="M0 457L21.5 459C43 461 86 465 128.8 472C171.7 479 214.3 489 257.2 484C300 479 343 459 385.8 445C428.7 431 471.3 423 514.2 422C557 421 600 427 642.8 432C685.7 437 728.3 441 771.2 437C814 433 857 421 878.5 415L900 409L900 305L878.5 294C857 283 814 261 771.2 262C728.3 263 685.7 287 642.8 304C600 321 557 331 514.2 329C471.3 327 428.7 313 385.8 309C343 305 300 311 257.2 309C214.3 307 171.7 297 128.8 296C86 295 43 303 21.5 307L0 311Z" fill="#132949"></path><path d="M0 601L21.5 601C43 601 86 601 128.8 601C171.7 601 214.3 601 257.2 601C300 601 343 601 385.8 601C428.7 601 471.3 601 514.2 601C557 601 600 601 642.8 601C685.7 601 728.3 601 771.2 601C814 601 857 601 878.5 601L900 601L900 407L878.5 413C857 419 814 431 771.2 435C728.3 439 685.7 435 642.8 430C600 425 557 419 514.2 420C471.3 421 428.7 429 385.8 443C343 457 300 477 257.2 482C214.3 487 171.7 477 128.8 470C86 463 43 459 21.5 457L0 455Z" fill="#122541"></path></svg>